<?xml version="1.0" encoding="UTF-8"?>
<svg width="475px" height="71px" viewBox="0 0 475 71" version="1.1" xmlns="http://www.w3.org/2000/svg" xmlns:xlink="http://www.w3.org/1999/xlink">
    <!-- Generator: sketchtool 54 (76480) - https://sketchapp.com -->
    <title>718BCDF8-9D9E-4BE4-8671-72C32B2DF3F7</title>
    <desc>Created with sketchtool.</desc>
    <defs>
        <filter x="-2.6%" y="-18.5%" width="105.1%" height="136.9%" filterUnits="objectBoundingBox" id="filter-1">
            <feOffset dx="4" dy="4" in="SourceAlpha" result="shadowOffsetOuter1"></feOffset>
            <feGaussianBlur stdDeviation="1" in="shadowOffsetOuter1" result="shadowBlurOuter1"></feGaussianBlur>
            <feColorMatrix values="0 0 0 0 0   0 0 0 0 0   0 0 0 0 0  0 0 0 0.9 0" type="matrix" in="shadowBlurOuter1" result="shadowMatrixOuter1"></feColorMatrix>
            <feMerge>
                <feMergeNode in="shadowMatrixOuter1"></feMergeNode>
                <feMergeNode in="SourceGraphic"></feMergeNode>
            </feMerge>
        </filter>
        <polygon id="path-2" points="0.148861888 0.0633393846 53.5139765 0.0633393846 53.5139765 55.925658 0.148861888 55.925658"></polygon>
        <polygon id="path-4" points="0.531437098 0.0522966421 52.2018004 0.0522966421 52.2018004 58.9288182 0.531437098 58.9288182"></polygon>
    </defs>
    <g id="Page-1" stroke="none" stroke-width="1" fill="none" fill-rule="evenodd">
        <g id="Desktop" transform="translate(-890.000000, -324.000000)">
            <g id="1-Open" transform="translate(-34.000000, -100.000000)">
                <g id="Logo" filter="url(#filter-1)" transform="translate(924.000000, 424.000000)">
                    <path d="M42.6318684,42.5551829 C42.6318684,44.4812331 41.6838825,45.4436992 39.7901104,45.4436992 L14.2109894,45.4436992 C12.3150177,45.4436992 11.3681316,44.4812331 11.3681316,42.5551829 L11.3681316,19.4436992 C11.3681316,17.5187669 12.3150177,16.5551829 14.2109894,16.5551829 L39.7901104,16.5551829 C41.6838825,16.5551829 42.6318684,17.5187669 42.6318684,19.4436992 L42.6318684,42.5551829 Z M39.7901104,5 L14.2109894,5 C4.73662987,5 0,9.8145664 0,19.4436992 L0,42.5551829 C0,52.1854336 4.73662987,57 14.2109894,57 L39.7901104,57 C49.2633701,57 54,52.1854336 54,42.5551829 L54,19.4436992 C54,9.8145664 49.2633701,5 39.7901104,5 L39.7901104,5 Z" id="Fill-1" fill="#FFFFFF"></path>
                    <polygon id="Fill-3" fill="#FFFFFF" points="100.709373 7 86 37.9088444 71.2906272 7 59 7 82.3137802 56 89.6862198 56 113 7"></polygon>
                    <polygon id="Fill-5" fill="#FFFFFF" points="168.599687 16.5551829 174 5 120 5 120 57 172.942713 57 172.942713 45.4436992 130.799582 45.4436992 130.799582 36.7770325 163.200418 36.7770325 168.599687 25.2218496 130.799582 25.2218496 130.799582 16.5551829"></polygon>
                    <g id="Group-9" transform="translate(183.000000, 0.000000)">
                        <mask id="mask-3" fill="white">
                            <use xlink:href="#path-2"></use>
                        </mask>
                        <g id="Clip-8"></g>
                        <polygon id="Fill-7" fill="#FFFFFF" mask="url(#mask-3)" points="53.5139765 6.31534005 42.2797303 6.31534005 42.2797303 37.7902382 8.09227925 6.2780134 0.148861888 0.0625928516 0.148861888 55.925658 11.3841949 55.925658 11.3841949 24.4507598 45.4618792 55.8627359 53.5139765 55.8627359"></polygon>
                    </g>
                    <g id="Group-12" transform="translate(246.000000, 6.000000)">
                        <mask id="mask-5" fill="white">
                            <use xlink:href="#path-4"></use>
                        </mask>
                        <g id="Clip-11"></g>
                        <path d="M40.6024227,16.8665384 C40.6024227,18.7349079 39.6351533,19.6685505 37.7028588,19.6685505 L12.1308148,19.6685505 L12.1308148,11.2614297 L37.7028588,11.2614297 C39.6351533,11.2614297 40.6024227,12.1961566 40.6024227,14.0645262 L40.6024227,16.8665384 Z M37.7028588,0.0522966421 L0.531437098,0.0522966421 L0.531437098,58.9292519 L12.1308148,50.4852625 L12.1308148,30.8776835 L37.7028588,30.8776835 C47.3688199,30.8776835 52.2018004,26.2083862 52.2018004,16.8665384 L52.2018004,14.0645262 C52.2018004,4.72376274 47.3688199,0.0522966421 37.7028588,0.0522966421 L37.7028588,0.0522966421 Z" id="Fill-10" fill="#FFFFFF" mask="url(#mask-5)"></path>
                    </g>
                    <polygon id="Fill-13" fill="#FFFFFF" points="317.932981 5 307 5 307 57 348 57 343.125268 45.4448171 317.932981 45.4448171"></polygon>
                    <path d="M395.631868,42.5585979 C395.631868,44.4841927 394.683883,45.4464313 392.79011,45.4464313 L367.20989,45.4464313 C365.315018,45.4464313 364.368132,44.4841927 364.368132,42.5585979 L364.368132,5.01229341 L353,5.01229341 L353,42.5585979 C353,52.1865718 357.73663,57 367.20989,57 L392.79011,57 C402.26337,57 407,52.1865718 407,42.5585979 L407,5 L395.631868,5.05587913 L395.631868,42.5585979 Z" id="Fill-15" fill="#FFFFFF"></path>
                    <path d="M455.5,25.2216631 L431.199791,25.2216631 C429.399582,25.2216631 428.5,24.2588865 428.5,22.3333333 L428.5,19.4438853 C428.5,17.5183322 429.399582,16.5555556 431.199791,16.5555556 L466.300209,16.5555556 L466.615742,5 L431.199791,5 C422.198746,5 417.699791,9.81500118 417.699791,19.4438853 L417.699791,22.3333333 C417.699791,31.9633357 422.198746,36.7772187 431.199791,36.7772187 L455.5,36.7772187 C457.299164,36.7772187 458.199791,37.7411135 458.199791,39.6666667 L458.199791,42.5549965 C458.199791,44.4816678 457.299164,45.4444444 455.5,45.4444444 L420.399582,45.4444444 L415,57 L455.5,57 C464.5,57 469,52.1849988 469,42.5549965 L469,39.6666667 C469,30.0366643 464.5,25.2216631 455.5,25.2216631" id="Fill-17" fill="#FFFFFF"></path>
                </g>
            </g>
        </g>
    </g>
</svg>