<?xml version="1.0" encoding="UTF-8"?>
<svg width="508px" height="54px" viewBox="0 0 508 54" version="1.1" xmlns="http://www.w3.org/2000/svg" xmlns:xlink="http://www.w3.org/1999/xlink">
    <!-- Generator: sketchtool 54 (76480) - https://sketchapp.com -->
    <title>E2160914-3E77-4B95-B82C-346FF7335D3E</title>
    <desc>Created with sketchtool.</desc>
    <defs>
        <polygon id="path-1" points="0.321251163 0.0839405941 45.8649953 0.0839405941 45.8649953 53.6421564 0.321251163 53.6421564"></polygon>
        <polygon id="path-3" points="0.0506373626 0.0839405941 47.6054505 0.0839405941 47.6054505 53.6421452 0.0506373626 53.6421452"></polygon>
        <polygon id="path-5" points="0.138396296 0.0825655371 42.6813222 0.0825655371 42.6813222 53.6413043 0.138396296 53.6413043"></polygon>
        <polygon id="path-7" points="0.43394 0.0839405941 25.6112659 0.0839405941 25.6112659 53.641996 0.43394 53.641996"></polygon>
        <polygon id="path-9" points="0 0.0839405941 47.5551824 0.0839405941 47.5551824 53.6421452 0 53.6421452"></polygon>
        <polygon id="path-11" points="0.461416794 0.0839405941 51.8430227 0.0839405941 51.8430227 53.6419426 0.461416794 53.6419426"></polygon>
        <polygon id="path-13" points="0.0955789654 0.441784158 45.6386937 0.441784158 45.6386937 54 0.0955789654 54"></polygon>
        <polygon id="path-15" points="0.0187240506 0.441516832 42.730243 0.441516832 42.730243 54 0.0187240506 54"></polygon>
        <polygon id="path-17" points="0.204076136 0.441730693 46.5727807 0.441730693 46.5727807 54 0.204076136 54"></polygon>
    </defs>
    <g id="Page-1" stroke="none" stroke-width="1" fill="none" fill-rule="evenodd">
        <g id="Desktop" transform="translate(-466.000000, -5861.000000)">
            <g id="KS" transform="translate(221.000000, 5861.000000)">
                <g id="Group-32" transform="translate(245.000000, 0.000000)">
                    <g id="Group-3" transform="translate(80.366173, 0.000000)">
                        <mask id="mask-2" fill="white">
                            <use xlink:href="#path-1"></use>
                        </mask>
                        <g id="Clip-2"></g>
                        <path d="M45.8649953,14.8033248 C45.8649953,6.2018198 38.6740186,0.083780198 27.1328326,0.083780198 C11.6848558,0.083780198 0.321251163,11.5221564 0.321251163,26.8629683 C0.321251163,42.2032455 11.6848558,53.6421564 27.1328326,53.6421564 C38.6740186,53.6421564 45.8649953,47.5235822 45.8649953,38.9220772 C45.8649953,33.2472653 43.0242279,29.2571465 37.3421581,26.8629683 C43.0242279,24.4687901 45.8649953,20.5668891 45.8649953,14.8033248" id="Fill-1" fill="#06CD78" mask="url(#mask-2)"></path>
                    </g>
                    <g id="Group-6" transform="translate(131.366173, 0.000000)">
                        <mask id="mask-4" fill="white">
                            <use xlink:href="#path-3"></use>
                        </mask>
                        <g id="Clip-5"></g>
                        <path d="M47.6054505,11.8076614 C47.6054505,5.23516634 42.1835604,0.172532673 35.7832088,0.172532673 C32.0502857,0.172532673 28.3168352,2.03793861 26.0054505,5.23516634 L23.2504615,9.14294851 C22.1833846,3.9028099 17.6502857,0.083780198 11.8723516,0.083780198 C5.20615385,0.083780198 0.0506373626,5.41267129 0.0506373626,11.9851663 L0.0506373626,41.7391663 C0.0506373626,48.3116614 5.29476923,53.6410871 11.8723516,53.6410871 C17.5616703,53.6410871 22.0056264,50.0883149 23.1613187,44.9363941 L25.6499341,48.489701 C27.9613187,51.8644337 31.7833846,53.6410871 35.5168352,53.6410871 C42.1835604,53.7298396 47.6054505,48.2229089 47.6054505,41.6504139 C47.6054505,39.1637406 46.8944176,36.7652851 45.3832088,34.6336218 L39.6944176,26.729305 L45.3832088,18.8244535 C46.8944176,16.7815426 47.6054505,14.2943347 47.6054505,11.8076614" id="Fill-4" fill="#06CD78" mask="url(#mask-4)"></path>
                    </g>
                    <g id="Group-9" transform="translate(181.366173, 0.000000)">
                        <mask id="mask-6" fill="white">
                            <use xlink:href="#path-5"></use>
                        </mask>
                        <g id="Clip-8"></g>
                        <path d="M0.138396296,41.1324151 C0.138396296,48.8841095 6.71049506,53.6413569 20.7438901,53.6413569 C34.5102605,53.6413569 42.6813222,47.0345363 42.6813222,36.5518684 C42.6813222,31.2660964 40.0169148,27.5664241 36.0200383,24.0429266 L32.7339889,21.1357783 C37.5303469,20.4310788 40.7272111,17.2599311 40.7272111,12.591034 C40.7272111,4.75098929 34.4216062,0.0820922315 21.0990383,0.0820922315 C8.0429642,0.0820922315 0.404890123,6.6010884 0.404890123,16.9075814 C0.404890123,22.1928275 3.15795185,25.8046754 7.1548284,29.4165232 L10.3522235,32.3236715 L10.2635691,32.3236715 C4.31258148,32.3236715 0.138396296,35.7588186 0.138396296,41.1324151" id="Fill-7" fill="#06CD78" mask="url(#mask-6)"></path>
                    </g>
                    <g id="Group-12" transform="translate(51.366173, 0.000000)">
                        <mask id="mask-8" fill="white">
                            <use xlink:href="#path-7"></use>
                        </mask>
                        <g id="Clip-11"></g>
                        <path d="M25.61026,40.8306297 L25.61026,12.8949861 C25.69762,5.95518416 20.0837,0.083619802 13.06578,0.083619802 C6.04838,0.083619802 0.43394,5.95518416 0.43394,12.8949861 L0.43394,40.8306297 C0.43394,47.8591842 6.04838,53.641996 12.97842,53.641996 C20.0837,53.641996 25.61026,47.769897 25.61026,40.8306297" id="Fill-10" fill="#06CD78" mask="url(#mask-8)"></path>
                    </g>
                    <g id="Group-15" transform="translate(0.366173, 0.000000)">
                        <mask id="mask-10" fill="white">
                            <use xlink:href="#path-9"></use>
                        </mask>
                        <g id="Clip-14"></g>
                        <path d="M47.5551824,11.8076614 C47.5551824,5.23516634 42.1427868,0.172532673 35.7550945,0.172532673 C32.0285011,0.172532673 28.3024352,2.03793861 25.9952703,5.23516634 L23.1564132,9.14294851 C22.0919736,3.9028099 17.5667868,0.083780198 11.7999297,0.083780198 C5.14586374,0.083780198 -0.000158241758,5.41267129 -0.000158241758,11.9851663 L-0.000158241758,41.7391663 C-0.000158241758,48.3116614 5.23447912,53.6410871 11.7999297,53.6410871 C17.4781714,53.6410871 21.9142154,50.0883149 23.0677978,44.9363941 L25.5521934,48.489701 C27.8588308,51.8644337 31.6740396,53.6410871 35.4001055,53.6410871 C42.1427868,53.7298396 47.5551824,48.2229089 47.5551824,41.6504139 C47.5551824,39.1637406 46.8452044,36.7652851 45.3371604,34.6336218 L39.6589187,26.729305 L45.3371604,18.8244535 C46.8452044,16.7815426 47.5551824,14.2943347 47.5551824,11.8076614" id="Fill-13" fill="#06CD78" mask="url(#mask-10)"></path>
                    </g>
                    <g id="Group-18" transform="translate(265.366173, 0.000000)">
                        <mask id="mask-12" fill="white">
                            <use xlink:href="#path-11"></use>
                        </mask>
                        <g id="Clip-17"></g>
                        <path d="M13.6360449,53.6419426 C18.7920041,53.6419426 23.0586571,50.6270317 26.0810245,44.3314871 C29.1033918,50.6270317 33.3700449,53.6419426 38.6146163,53.6419426 C48.0372286,53.6419426 54.7043714,45.0409723 50.6154735,35.3755069 L39.6816776,9.83778416 C37.0148204,3.54170495 33.0145347,0.0835663366 26.1701673,0.0835663366 C19.4144122,0.0835663366 15.4141265,3.54170495 12.6581265,9.83778416 L1.72433061,35.3755069 C-2.45317959,45.0409723 4.30257551,53.6419426 13.6360449,53.6419426" id="Fill-16" fill="#06CD78" mask="url(#mask-12)"></path>
                    </g>
                    <g id="Group-21" transform="translate(462.366173, 0.000000)">
                        <mask id="mask-14" fill="white">
                            <use xlink:href="#path-13"></use>
                        </mask>
                        <g id="Clip-20"></g>
                        <path d="M39.2840039,28.4704574 C42.6381856,25.8816653 44.667796,21.7760614 44.667796,16.7770515 C44.667796,7.58261584 37.4301287,0.441784158 28.162851,0.441784158 L12.8932982,0.441784158 C4.59702299,0.441784158 0.0955789654,4.99435842 0.0955789654,13.7418238 L0.0955789654,41.7710317 C0.0955789654,48.4654277 5.39176576,54.0001604 11.8346903,54.0001604 C17.1303525,54.0001604 21.2787524,50.6970713 22.7790589,45.9664574 L24.0149757,48.1975663 C26.2213705,51.9470911 30.1043315,54.0001604 34.0764716,54.0001604 C40.5193962,54.0001604 45.6387986,48.8225762 45.6387986,42.2169327 C45.6387986,39.9858238 45.1089701,37.8429327 43.8735779,35.8791505 L39.2840039,28.4704574 Z" id="Fill-19" fill="#06CD78" mask="url(#mask-14)"></path>
                    </g>
                    <g id="Group-24" transform="translate(416.366173, 0.000000)">
                        <mask id="mask-16" fill="white">
                            <use xlink:href="#path-15"></use>
                        </mask>
                        <g id="Clip-23"></g>
                        <path d="M42.730243,10.7929426 C42.730243,5.03258614 38.0345342,0.441516832 32.3460152,0.441516832 L13.3830152,0.441516832 C4.71443291,0.441516832 0.0187240506,5.03258614 0.0187240506,13.7634772 L0.0187240506,40.6768634 C0.0187240506,49.4981109 4.71443291,53.9988238 13.3830152,53.9988238 L32.3460152,53.9988238 C38.0345342,54.0886455 42.730243,49.4981109 42.730243,43.7372198 C42.730243,38.6066851 39.388762,34.7363287 34.7834076,33.8359723 C36.8610152,32.4859723 38.1248886,30.2356158 38.1248886,27.2650812 C38.1248886,24.2945465 36.9513696,22.0441901 34.7834076,20.6947248 C39.4791165,19.7943683 42.730243,16.0138337 42.730243,10.7929426" id="Fill-22" fill="#06CD78" mask="url(#mask-16)"></path>
                    </g>
                    <path d="M258.904987,1 L234.82736,1 C228.518874,1 223.366173,5.94689241 223.366173,12.3953122 C223.366173,18.578134 228.252767,23.4366702 234.205381,23.7900952 L234.205381,42.0750794 C234.205381,48.6118554 239.802655,54 246.732589,54 C253.929691,54 259.526965,48.6118554 259.526965,42.0750794 L259.526965,23.7900952 C265.47958,23.5250265 270.366173,18.578134 270.366173,12.3953122 C270.366173,6.03524867 265.212942,1 258.904987,1" id="Fill-25" fill="#06CD78"></path>
                    <g id="Group-29" transform="translate(321.366173, 0.000000)">
                        <mask id="mask-18" fill="white">
                            <use xlink:href="#path-17"></use>
                        </mask>
                        <g id="Clip-28"></g>
                        <path d="M45.5841784,16.776998 C45.5841784,7.58256238 38.2153261,0.441730693 28.7800761,0.441730693 L13.234292,0.441730693 C4.8768375,0.441730693 0.204076136,4.99430495 0.204076136,13.7417703 L0.204076136,41.7709782 C0.204076136,48.4659089 5.59572386,54.0001069 12.1559625,54.0001069 C17.5476102,54.0001069 21.770667,50.6970178 23.2987011,45.966404 L24.5570193,48.1980475 C26.8034057,51.9470376 30.7572807,54.0001069 34.800883,54.0001069 C41.3611216,54.0001069 46.5727807,48.8230574 46.5727807,42.2174139 C46.5727807,39.9857703 46.0333489,37.8428792 44.7750307,35.8796317 L40.1028034,28.470404 C43.5172466,25.8816119 45.5841784,21.7760079 45.5841784,16.776998" id="Fill-27" fill="#06CD78" mask="url(#mask-18)"></path>
                    </g>
                    <path d="M388.688767,54 C396.049016,54 401.547558,48.6118554 401.547558,42.0750794 L401.547558,23.7900952 C407.489617,23.5250265 412.366173,18.578134 412.366173,12.3953122 C412.366173,6.03524867 407.223507,1 400.926635,1 L376.805712,1 C370.509371,1 365.366173,5.94689241 365.366173,12.3953122 C365.366173,18.578134 370.243261,23.4366702 376.18532,23.7900952 L376.18532,42.0750794 C376.18532,48.6118554 381.772034,54 388.688767,54" id="Fill-30" fill="#06CD78"></path>
                </g>
            </g>
        </g>
    </g>
</svg>