<svg xmlns="http://www.w3.org/2000/svg" xmlns:xlink="http://www.w3.org/1999/xlink" width="118" height="118" viewBox="0 0 118 118">
    <defs>
        <path id="a" d="M0 .504h114.532v71.109H0z"/>
        <path id="c" d="M.274.03H113.48V67H.273z"/>
    </defs>
    <g fill="none" fill-rule="evenodd">
        <path fill="#FFF" d="M62.94 14.096L46.07 69.91l15.324-6.137.415 40.067 15.74-58.515-13.886 3.84z"/>
        <g transform="translate(0 -.504)">
            <mask id="b" fill="#fff">
                <use xlink:href="#a"/>
            </mask>
            <path fill="#FFF" d="M5.01 48.86C10.738 19.232 39.502-.215 69.131 5.517c14.764 2.854 27.55 11.572 35.623 24.127l-7.87-2.648 3.073 6.188 10.91 3.666 3.665-10.91-3.075-6.186-2.847 8.48A58.577 58.577 0 0 0 69.89 1.59c-15.4-2.977-31.04.22-44.037 9.005C12.858 19.379 4.06 32.699 1.083 48.1c-1.518 7.85-1.44 15.76.233 23.512l3.91-.843c-1.558-7.221-1.63-14.593-.216-21.91" mask="url(#b)"/>
        </g>
        <g transform="translate(4 50.496)">
            <mask id="d" fill="#fff">
                <use xlink:href="#c"/>
            </mask>
            <path fill="#FFF" d="M112.907.03l-3.96.56a54.603 54.603 0 0 1-.474 18.047 54.717 54.717 0 0 1-5.373 15.269C93.447 52.116 74.909 63 54.929 62.999a55.749 55.749 0 0 1-10.576-1.018c-13.965-2.7-26.313-10.775-34.43-22.357l7.947 2.344-3.305-6.067-11.038-3.252L.273 43.688l3.306 6.067 2.53-8.59c8.697 12.837 22.195 21.787 37.484 24.743A59.743 59.743 0 0 0 54.94 67c21.44 0 41.335-11.68 51.694-31.22a58.77 58.77 0 0 0 5.767-16.383A58.61 58.61 0 0 0 112.909.03" mask="url(#d)"/>
        </g>
    </g>
</svg>
