<svg xmlns="http://www.w3.org/2000/svg" xmlns:xlink="http://www.w3.org/1999/xlink" width="104" height="118" viewBox="0 0 104 118">
    <defs>
        <path id="a" d="M0 .828h103.231V74H0z"/>
    </defs>
    <g fill="none" fill-rule="evenodd">
        <g transform="translate(.358 44)">
            <mask id="b" fill="#fff">
                <use xlink:href="#a"/>
            </mask>
            <path fill="#FFF" d="M5 14.368C9.83 9.118 16.436 7.283 23.006 5.92c4.428-.919 8.95-1.391 12.785-1.787a57.022 57.022 0 0 1 9.493-.21c16.91 1.07 31.644 4.49 44.454 14.183 2.003 1.515 3.87 3.247 5.612 5.059 6.226 6.485 6.083 14.3-.436 20.547-6.302 6.037-14.178 8.54-22.664 9.461-9.306 1.011-18.28-.444-26.52-4.778-3.143-1.653-5.88-4.39-8.25-7.107-6.073-6.966-12.265-13.422-22.338-14.26-2.83-.236-5.76-1.18-8.295-2.461-4.157-2.102-4.993-6.778-1.845-10.2m98.137 19.68c-.121-4.385-.607-7.906-4.384-11.68-5.202-5.2-10.838-9.42-17.045-12.673-15.95-8.36-33.292-10.077-51.014-8.152-8.221.893-16.305 2.643-23.505 7.035C3.023 11.12-.206 14.368.01 19.784.217 24.959.6 30.139.35 35.313c-.235 4.864 1.934 8.129 6.09 9.807 2.921 1.179 6.08 2.119 9.2 2.388 5.151.445 9.189 2.814 12.844 6.082 1.792 1.603 3.246 3.58 5.031 5.19 3.793 3.414 7.231 7.608 11.65 9.87 13.815 7.073 28.24 6.868 42.422.943 8.056-3.365 14.215-8.901 15.388-18.169.394-3.119.236-14.752.163-17.376" mask="url(#b)"/>
        </g>
        <path fill="#FFF" d="M51.101 86c-3.779 0-7.245-.95-9.046-2.48-1.392-1.18-1.827-2.31-1.665-4.319.643-7.91 5.417-12.446 13.102-12.446 2.088.004 4.263.092 6.503.261.514.04 1.026.06 1.533.06 5.833 0 10.321-2.643 13.694-8.076 3.625 1.162 6.323 2.712 9.136 4.744-.604.246-1.234.465-1.853.681-2.229.775-4.532 1.577-5.467 3.648-.522 1.158-.54 2.559-.054 4.261l-1.33.093c-1.943.13-3.777.252-5.622.63-3.429.703-7.694 1.578-8.336 7.133-.153 1.327-1.072 2.594-1.88 3.336C58.128 85.076 54.87 86 51.1 86"/>
        <path fill="#FFF" d="M35.999 79c-.508-.886-.965-1.658-1.388-2.37-1.372-2.312-2.364-3.982-3.621-7.14-.76-1.91-.84-4.012-.209-5.486.415-.967 1.114-1.647 2.078-2.02 3.417-1.062 7.005-2.97 7.616-8.826a72.661 72.661 0 0 1 4.74-.158c8.748 0 16.764 1.635 25.143 5.137-1.65 3.603-6.538 5.482-10.82 5.482-.129 0-.258-.002-.386-.006-1.346-.036-2.568-.155-3.75-.272-1.41-.137-2.868-.28-4.52-.28h-.112c-7.72.03-13.329 5.64-14.636 14.64-.045.315-.072.614-.098.91-.012.131-.023.26-.037.389M67.356 93c-6.986 0-12.876-1.316-15.998-3.465.586.023 1.175.042 1.754.042.728 0 1.358-.03 1.924-.091 1.782-.193 6.013-.981 7.856-4.165a.43.43 0 0 1 .042.034c2.111 1.984 7.233 3.481 11.915 3.481 7.081 0 11.765-3.15 12.852-8.64.557-2.817-1.977-5.444-3.865-6.332-1.223-.577-3.239-1.822-2.997-3.685.083-.64 1.622-2.17 3.221-2.706.95-.319 1.809-.473 2.627-.473 2.36 0 4.382 1.334 6.556 4.323 2.562 3.522 2.793 6.898.71 10.323-2.364 3.889-5.997 7.015-9.967 8.58C79.512 91.99 73.451 93 67.356 93"/>
        <path fill="#FFF" d="M28.134 71c-3.35-1.907-5.982-3.281-8.712-4.058 2.311-3.55 2.29-7.379-.064-11.202 3.072-.996 8.946-2.587 15.488-2.707.28-.023.475-.033.662-.033.877 0 1.532.22 1.749.586.216.364.081 1.004-.368 1.758-.566.948-2.045 1.89-3.215 2.33-3.178 1.196-5.254 2.99-6.171 5.339-1.102 2.82-.27 5.852.631 7.987M74.997 85c-2.355 0-4.887-.466-7.526-1.387a3.153 3.153 0 0 1-1.878-1.818 3.193 3.193 0 0 1 .108-2.643c.71-1.39 1.732-2.21 3.122-2.512 2.737-.593 4.773-.64 7.15-.64l1.791.004c.345.005 2.21.245 2.555.354 1.15.37 1.638.801 2.188 1.517l.16.209c.588.768.815 1.754.626 2.71C82.889 82.818 80.12 85 74.997 85zM15.643 66a1.328 1.328 0 0 0-.15-.005h-.123c-2.408 0-6.02-.93-7.976-2.65l-.015-.015c-.064-.25-.044-1.023.939-1.885 1.928-1.692 4.354-3.168 7.213-4.388a.56.56 0 0 1 .213-.057c.124 0 .46.256.842 1.224.833 2.106.984 3.697.491 5.156-.65 1.921-1.268 2.551-1.434 2.62M16.264 43c.44-.674.689-1.166.718-1.225 2.868-5.875-5.818-15.482-6.19-15.887C7.305 21.913 5.86 18.02 6.51 14.335c.672-3.82 3.456-6.689 5.51-8.335-.729 2.901-1.34 7.596.485 12.2 1.176 2.964 3.338 4.874 5.245 6.557 2.836 2.504 5.284 4.666 4.44 9.775-.681 4.123-3.343 6.8-5.925 8.468M12.033 43c-.133-1.446-.825-3.3-2.969-5.137-4.133-3.545-7.77-7.446-6.42-11.94.105-.345.208-.652.309-.923.551 1.962 2.08 4.656 5.927 7.747 3.116 2.502 4.659 5.05 4.46 7.37-.088 1.047-.547 2.038-1.307 2.883M57.253 37c.446-.683.699-1.18.728-1.24 2.868-5.873-5.818-15.476-6.19-15.881-3.486-3.973-4.931-7.863-4.282-11.548.673-3.82 3.456-6.684 5.51-8.331-.729 2.9-1.34 7.593.485 12.194 1.176 2.963 3.338 4.87 5.245 6.555 2.835 2.502 5.284 4.665 4.44 9.77-.684 4.14-3.351 6.817-5.936 8.481M52.033 36c-.133-1.445-.824-3.298-2.97-5.138-4.132-3.544-7.77-7.444-6.418-11.94.103-.345.207-.65.307-.922.551 1.963 2.08 4.655 5.928 7.746 3.116 2.503 4.659 5.052 4.46 7.37-.09 1.048-.547 2.04-1.307 2.884M94.264 55c.44-.674.689-1.166.718-1.225 2.867-5.875-5.818-15.482-6.19-15.887-3.487-3.975-4.932-7.867-4.283-11.553.672-3.82 3.456-6.689 5.51-8.335-.729 2.901-1.34 7.596.485 12.2 1.176 2.964 3.337 4.874 5.245 6.557 2.837 2.504 5.284 4.666 4.44 9.773-.681 4.124-3.342 6.8-5.925 8.47M89.033 54c-.133-1.445-.825-3.298-2.97-5.138-4.131-3.544-7.77-7.444-6.418-11.94.104-.345.207-.65.307-.922.551 1.963 2.08 4.656 5.928 7.746 3.117 2.504 4.66 5.052 4.46 7.371-.09 1.048-.547 2.04-1.307 2.883"/>
    </g>
</svg>
