<svg xmlns="http://www.w3.org/2000/svg" width="120" height="120" viewBox="0 0 120 120">
    <g fill="#FFF" fill-rule="evenodd">
        <path d="M63.36 29.537c-3.741 8.074-8.138 10.07-8.138 10.07s12.286-2.165 15.75-11.417c3.464-9.252-3.34-18.828-14.668-13.21-8.457 4.195-8.39-4.308-8.39-4.308s-3.72 11.92 10.893 11.649c0 0 8.296-.857 4.554 7.216zM47.137 77.842c-4.565 6.719-1.793 11.442 4.566 15.314 6.358 3.872 1.421 15.652 1.421 15.652 3.551-.937 8.457-8.66 8.457-8.66 4.735-10.341-3.954-11.82-5.24-18.314-1.285-6.495 5.27-15.368 5.27-15.368s-9.908 4.658-14.474 11.376z"/>
        <path d="M59.74 114.479c-18.02 0-34.03-8.756-44.01-22.233l42.62-31.595c3.456-1.233 5.92-3.457 9.878-2.76 7.205 1.268-.626 9.928-.626 9.928-7.916 9.404-2.514 17.697-2.514 17.697.124-12.951 14.422-13.502 18.3-25.494 2.232-6.897-.218-12.005-3.936-15.014l24.186-17.929c6.806 9.124 10.84 20.429 10.84 32.661 0 30.183-24.556 54.739-54.739 54.739M59.74 5c16.156 0 30.695 7.041 40.724 18.209L74.558 42.412c-1.403-.422-2.795-.596-4.047-.505-6.495.473-13.734 6.292-19.01 2.097-5.279-4.194.811-11.363.811-11.363-14.597 2.608-18.182 21.342-5.859 26.873 1.212.544 2.323.949 3.354 1.245L12.931 88.095a54.414 54.414 0 0 1-7.93-28.355C5 29.557 29.555 5 59.738 5M0 59.74c0 32.94 26.8 59.739 59.74 59.739s59.738-26.799 59.738-59.739C119.478 26.799 92.68 0 59.74 0S0 26.799 0 59.74z"/>
    </g>
</svg>
