<svg xmlns="http://www.w3.org/2000/svg" xmlns:xlink="http://www.w3.org/1999/xlink" width="14" height="26" viewBox="0 0 14 26">
    <defs>
        <path id="a" d="M.17.825h13.029V26H.169z"/>
    </defs>
    <g fill="none" fill-rule="evenodd" transform="translate(0 -.825)">
        <mask id="b" fill="#fff">
            <use xlink:href="#a"/>
        </mask>
        <path fill="#FFF" d="M7.64 1.125c-2.133.697-3.29 2.252-3.533 4.427C3.96 6.878 4.035 8.23 4.01 9.57c-.002.136 0 .271 0 .44H.17v4.48h3.817v11.492L8.663 26V14.493h.34c1.026 0 2.051-.01 3.075.007.304.005.43-.055.466-.397.138-1.28.32-2.556.485-3.833.01-.07.01-.143.017-.242H8.718c-.035-.043-.058-.058-.058-.074 0-1.109-.044-2.22.015-3.326.053-1.01.635-1.54 1.66-1.6.832-.049 1.668-.04 2.502-.056.115-.002.23 0 .362 0V.906C11.913.876 10.63.81 9.347.828a5.84 5.84 0 0 0-1.707.297" mask="url(#b)"/>
    </g>
</svg>
