<?xml version="1.0" encoding="UTF-8"?>
<svg width="234px" height="148px" viewBox="0 0 234 148" version="1.1" xmlns="http://www.w3.org/2000/svg" xmlns:xlink="http://www.w3.org/1999/xlink">
    <!-- Generator: sketchtool 54 (76480) - https://sketchapp.com -->
    <title>EE8B5B99-4E64-429C-AD72-E3AA2F5FF4BA</title>
    <desc>Created with sketchtool.</desc>
    <defs>
        <polygon id="path-1" points="0 146 233 146 233 0 0 0"></polygon>
    </defs>
    <g id="Page-1" stroke="none" stroke-width="1" fill="none" fill-rule="evenodd">
        <g id="Mobile" transform="translate(-80.000000, -7000.000000)">
            <g id="Front" transform="translate(81.000000, 7001.000000)">
                <path d="M14,130 L15.6912282,144.720571 C15.6912282,144.720571 21.2057012,147.599286 27.75022,144.720571 L29,130" id="Stroke-1" stroke="#262628"></path>
                <path d="M203,130 L204.691228,144.720571 C204.691228,144.720571 210.205701,147.599286 216.75022,144.720571 L218,130" id="Stroke-3" stroke="#262628"></path>
                <path d="M180.211889,23 L51.7881115,23 C50.2484273,23 49,21.7617637 49,20.2332263 L49,2.76741032 C49,1.2388729 50.2484273,0 51.7881115,0 L180.211889,0 C181.751573,0 183,1.2388729 183,2.76741032 L183,20.2332263 C183,21.7617637 181.751573,23 180.211889,23 Z" id="Stroke-5" stroke="#262628"></path>
                <path d="M49,2 L3.43626451,2 C1.53921998,2 0.00168304433,3.52883452 0.00168304433,5.41371647 L0.00168304433,20.8481815 C0.00168304433,20.8481815 -0.0772802305,21.7733944 0.846525887,22.3751018 C2.14781498,23.2218311 14.9007048,31 14.9007048,31" id="Stroke-7" stroke="#262628"></path>
                <path d="M2.12909638,22 C2.12909638,22 1.64271705,21.0528026 2.55810463,21.016247 C3.47285474,20.9796913 49,21.016247 49,21.016247" id="Stroke-9" stroke="#262628"></path>
                <path d="M183,2 L229.515147,2 C230.886411,2 231.998317,3.10451275 231.998317,4.46744703 L231.998317,20.8481815 C231.998317,20.8481815 232.07728,21.7733944 231.153474,22.3751018 C229.852185,23.2218311 217.099295,31 217.099295,31" id="Stroke-11" stroke="#262628"></path>
                <path d="M230.870904,22 C230.870904,22 231.357283,21.0528026 230.441895,21.016247 C229.527145,20.9796913 184,21.016247 184,21.016247" id="Stroke-13" stroke="#262628"></path>
                <path d="M22,22 C22,22 12.9020623,32.666179 10.0963102,46.5297419 C10.0963102,46.5297419 8.99669882,50.6593003 14.2285676,51" id="Stroke-15" stroke="#262628"></path>
                <path d="M25,22 C25,22 17.3484847,32.9688824 14.1978239,45.9996943 C14.1978239,45.9996943 12.8100029,49.7879198 17.386112,51" id="Stroke-17" stroke="#262628"></path>
                <path d="M211,22 C211,22 220.097938,32.666179 222.90369,46.5297419 C222.90369,46.5297419 224.003301,50.6593003 218.771432,51" id="Stroke-19" stroke="#262628"></path>
                <path d="M208,22 C208,22 215.651515,32.9688824 218.802176,45.9996943 C218.802176,45.9996943 220.189997,49.7879198 215.613888,51" id="Stroke-21" stroke="#262628"></path>
                <path d="M15,49.5 L218,49.5" id="Stroke-23" stroke="#262628"></path>
                <polygon id="Stroke-25" stroke="#262628" points="33.4385764 130 33.4385764 83.1535106 34.4383018 83.1535106 34.4383018 83.923204 177.109071 83.923204 177.109071 83.1535106 178.781924 83.1535106 178.781924 94.8654544 178.176302 95.4718211 178.176302 130 223 130 223 51 10 51 10 130"></polygon>
                <path d="M36,98.5003067 C36,99.3289716 35.776587,100 35.5004122,100 C35.2242374,100 35,99.3289716 35,98.5003067 C35,97.6716418 35.2242374,97 35.5004122,97 C35.776587,97 36,97.6716418 36,98.5003067 Z" id="Stroke-27" stroke="#262628"></path>
                <path d="M177,98.5003067 C177,99.3289716 176.776587,100 176.500412,100 C176.224237,100 176,99.3289716 176,98.5003067 C176,97.6716418 176.224237,97 176.500412,97 C176.776587,97 177,97.6716418 177,98.5003067 Z" id="Stroke-29" stroke="#262628"></path>
                <path d="M36,122 C36,121.525424 36.1237055,121.089266 36.3310111,120.746516 C36.3569949,120.702825 36.3846733,120.662147 36.4129166,120.621469 C36.6863114,120.238041 37.0721145,120 37.4997176,120 C38.3283751,120 39,120.894915 39,122" id="Stroke-31" stroke="#262628"></path>
                <path d="M37,121 L35,123" id="Stroke-33" stroke="#262628"></path>
                <path d="M175,122 C175,121.525424 174.87573,121.089266 174.668989,120.746516 C174.643005,120.702825 174.615327,120.662147 174.587083,120.621469 C174.313689,120.238041 173.927886,120 173.499718,120 C172.671625,120 172,120.894915 172,122" id="Stroke-35" stroke="#262628"></path>
                <path d="M175,121 L177,123" id="Stroke-37" stroke="#262628"></path>
                <path d="M175.359386,126 L35.6406142,126 C34.7340267,126 34,125.328786 34,124.500292 C34,124.099201 34.1719168,123.735529 34.4513621,123.466576 C34.7507677,123.179497 35.1725111,123 35.6406142,123 L175.359386,123 C176.265329,123 177,123.671799 177,124.500292 C177,125.328786 176.265329,126 175.359386,126 Z" id="Stroke-39" stroke="#262628"></path>
                <path d="M36,121.039291 L36,118.166747 C36,117.522281 36.5609355,117 37.2516637,117 L174.747694,117 C175.439064,117 176,117.522281 176,118.166747 L176,122" id="Stroke-41" stroke="#262628"></path>
                <path d="M33,121.6554 L33,117.633333 C33,116.731285 33.5803117,116 34.2965233,116 L176.703477,116 C177.419688,116 178,116.731285 178,117.633333 L178,123" id="Stroke-43" stroke="#262628"></path>
                <path d="M33,130 L36,128" id="Stroke-45" stroke="#262628"></path>
                <path d="M176,127 L178,129" id="Stroke-47" stroke="#262628"></path>
                <polyline id="Stroke-49" stroke="#262628" points="33 115 63 100.659457 63 85"></polyline>
                <polyline id="Stroke-51" stroke="#262628" points="37 84 39.7576902 85 174.912684 85 177 84"></polyline>
                <polyline id="Stroke-53" stroke="#262628" points="178 85.7959144 174.292327 85 156 87.7376599 156 101.437645 177.454791 115"></polyline>
                <polyline id="Stroke-55" stroke="#262628" points="178 94.396148 155.738431 87.6603704 150.953694 87.6603704 150.953694 102 67 102 67 85"></polyline>
                <path d="M178,95 L156,88" id="Stroke-57" stroke="#262628"></path>
                <path d="M38,112.5 L175,112.5" id="Stroke-59" stroke="#262628"></path>
                <path d="M44,110.5 L171,110.5" id="Stroke-61" stroke="#262628"></path>
                <path d="M158,85 C158,85 156.594431,86.3248848 157.116085,88" id="Stroke-63" stroke="#262628"></path>
                <path d="M155,89.9996886 C155,90.5527873 154.552304,91 154,91 C153.447696,91 153,90.5527873 153,89.9996886 C153,89.4472127 153.447696,89 154,89 C154.552304,89 155,89.4472127 155,89.9996886 Z" id="Stroke-65" stroke="#262628"></path>
                <path d="M36,125.464438 L36,126.210942 C36,127.198784 36.8474841,128 37.8923715,128 L41.9664678,128 C42.7072126,128 43.3077818,127.432219 43.3077818,126.731915 L176.364708,126.731915 C176.715791,126.731915 177,126.46383 177,126.131915 L177,125" id="Stroke-67" stroke="#262628"></path>
                <polyline id="Stroke-69" stroke="#262628" points="45 134 45 127 48 127 48 130.654576"></polyline>
                <path d="M44,134.603477 L44,131.397192 C44,131.177867 44.1807219,131 44.4028875,131 L48.3393631,131 C50.3612739,131 52,132.613507 52,134.603477 C52,134.822802 51.8199575,135 51.5971125,135 L44.4028875,135 C44.1807219,135 44,134.822802 44,134.603477 Z" id="Stroke-71" stroke="#262628"></path>
                <polyline id="Stroke-73" stroke="#262628" points="168 134 168 127 165 127 165 130.97607"></polyline>
                <path d="M168,134.603477 L168,131.397192 C168,131.177867 167.819958,131 167.597113,131 L163.660637,131 C161.638726,131 160,132.613507 160,134.603477 C160,134.822802 160.180042,135 160.402887,135 L167.597113,135 C167.819958,135 168,134.822802 168,134.603477 Z" id="Stroke-75" stroke="#262628"></path>
                <path d="M213,108.5 C213,114.850981 207.851468,120 201.499686,120 C195.148532,120 190,114.850981 190,108.5 C190,102.149019 195.148532,97 201.499686,97 C207.851468,97 213,102.149019 213,108.5 Z" id="Stroke-77" stroke="#262628"></path>
                <path d="M213,109.999682 C213,115.522777 208.522635,120 203,120 C197.476729,120 193,115.522777 193,109.999682 C193,104.476587 197.476729,100 203,100 C208.522635,100 213,104.476587 213,109.999682 Z" id="Stroke-79" stroke="#262628"></path>
                <path d="M211,110 C211,114.418172 207.418172,118 203,118 C198.581828,118 195,114.418172 195,110 C195,105.581828 198.581828,102 203,102 C207.418172,102 211,105.581828 211,110 Z" id="Stroke-81" stroke="#262628"></path>
                <path d="M201,97 C201,97 202.261383,98.365249 201.950797,100" id="Stroke-83" stroke="#262628"></path>
                <path d="M202.544831,97 C202.544831,97 202.105831,98.3600912 202.627831,100" id="Stroke-85" stroke="#262628"></path>
                <path d="M213,109.999682 C213,115.522777 208.522635,120 203,120 C197.476729,120 193,115.522777 193,109.999682 C193,104.476587 197.476729,100 203,100 C208.522635,100 213,104.476587 213,109.999682 Z" id="Stroke-87" stroke="#262628"></path>
                <mask id="mask-2" fill="white">
                    <use xlink:href="#path-1"></use>
                </mask>
                <g id="Clip-90"></g>
                <polygon id="Stroke-89" stroke="#262628" mask="url(#mask-2)" points="48 129 165 129 165 127 48 127"></polygon>
                <polygon id="Stroke-91" stroke="#262628" mask="url(#mask-2)" points="52 131 161 131 161 129 52 129"></polygon>
                <path d="M52,134.5 L160,134.5" id="Stroke-92" stroke="#262628" mask="url(#mask-2)"></path>
                <path d="M63,100.5 L67,100.5" id="Stroke-93" stroke="#262628" mask="url(#mask-2)"></path>
                <path d="M156,101.5 L151,101.5" id="Stroke-94" stroke="#262628" mask="url(#mask-2)"></path>
            </g>
        </g>
    </g>
</svg>