<?xml version="1.0" encoding="UTF-8"?>
<svg width="233px" height="153px" viewBox="0 0 233 153" version="1.1" xmlns="http://www.w3.org/2000/svg" xmlns:xlink="http://www.w3.org/1999/xlink">
    <!-- Generator: sketchtool 54 (76480) - https://sketchapp.com -->
    <title>1B98F5D2-7A8D-4102-AA13-C8D25BCDD45C</title>
    <desc>Created with sketchtool.</desc>
    <g id="Page-1" stroke="none" stroke-width="1" fill="none" fill-rule="evenodd">
        <g id="Mobile" transform="translate(-60.000000, -6745.000000)" stroke="#262628">
            <g id="side" transform="translate(61.000000, 6746.000000)">
                <polygon id="Stroke-1" points="27 134 231 134 231 53 27 53"></polygon>
                <g id="Group-86">
                    <path d="M53.0236986,27.5013017 C40.1887751,34.4978539 31.8446618,42.0045235 27.337421,46.7249148 C25.6168091,48.527067 26.8918232,51.5083322 29.3846731,51.5083322 L228.158067,51.5083322 C230.939438,51.5083322 232.382701,48.1896148 230.476095,46.1655583 C219.961829,35.0033757 187.506803,10.2223061 128.737194,10.0391365 C127.43392,10.0351974 126.143789,10.0437322 124.868118,10.0640843" id="Stroke-2"></path>
                    <polyline id="Stroke-4" points="26.9978992 99.0250122 24.4820465 101.538177 23.5382731 105.307925 23.5382731 114.261569 24.4031796 117.875064 26.9978992 120.623264"></polyline>
                    <polyline id="Stroke-6" points="25.2682176 100.752846 18.3496227 100.752846 15.8331127 103.894303 15.8331127 115.911277 18.6637756 118.738916 25.2189258 118.738916"></polyline>
                    <path d="M15.8331127,103.894434 C15.8331127,103.894434 21.2584952,103.423051 23.5384045,105.307925" id="Stroke-8"></path>
                    <path d="M15.8331127,115.911211 C15.8331127,115.911211 20.8654754,116.618285 23.5384045,114.261372" id="Stroke-10"></path>
                    <path d="M57.916664,131.972884 L50.7272929,131.972884 C47.068528,131.972884 44.1024771,129.010001 44.1024771,125.355801 C44.1024771,121.700945 47.068528,118.738719 50.7272929,118.738719 L57.916664,118.738719 C61.5747717,118.738719 64.5408227,121.700945 64.5408227,125.355801 C64.5408227,129.010001 61.5747717,131.972884 57.916664,131.972884 Z" id="Stroke-12"></path>
                    <path d="M52.4325915,126.37643 C52.4325915,127.818808 51.2620759,128.988073 49.8181552,128.988073 C48.3748918,128.988073 47.203719,127.818808 47.203719,126.37643 C47.203719,124.934708 48.3748918,123.764787 49.8181552,123.764787 C51.2620759,123.764787 52.4325915,124.934708 52.4325915,126.37643 Z" id="Stroke-14"></path>
                    <path d="M55.4597643,125.846223 C55.4597643,128.123697 53.611651,129.969836 51.3317416,129.969836 C49.0518323,129.969836 47.203719,128.123697 47.203719,125.846223 C47.203719,123.568749 49.0518323,121.723267 51.3317416,121.723267 C53.611651,121.723267 55.4597643,123.568749 55.4597643,125.846223 Z" id="Stroke-16"></path>
                    <path d="M47.2040476,124.589575 C47.2040476,124.589575 45.7496113,123.883157 45.0812147,124.982831 C44.4128181,126.081849 45.0812147,128.849088 45.0812147,128.849088" id="Stroke-18"></path>
                    <path d="M55.4597643,125.846223 C55.4597643,125.846223 58.9581666,124.040132 59.8625065,122.940458 C60.7668465,121.840784 62.565668,121.491514 63.9852714,122.667345" id="Stroke-20"></path>
                    <path d="M51.3318731,121.72307 C51.3318731,121.72307 51.7288363,118.703726 55.184519,118.738522 C58.6402017,118.773317 59.2612782,122.042139 57.8324737,124.494248" id="Stroke-22"></path>
                    <path d="M35.8823161,133.896952 L37.6903388,149.240522 C37.6903388,149.240522 43.5876079,152.460761 50.5850697,149.240522 L51.9218629,133.896952" id="Stroke-24"></path>
                    <path d="M204.766026,133.896952 L206.574706,149.240522 C206.574706,149.240522 212.471318,152.460761 219.46878,149.240522 L220.805573,133.896952" id="Stroke-26"></path>
                    <path d="M222.731896,44.9895309 C222.731896,46.1824309 221.763805,47.1494874 220.569629,47.1494874 C219.375454,47.1494874 218.407363,46.1824309 218.407363,44.9895309 C218.407363,43.7972874 219.375454,42.8302309 220.569629,42.8302309 C221.763805,42.8302309 222.731896,43.7972874 222.731896,44.9895309 Z" id="Stroke-28"></path>
                    <path d="M186.384659,23.1505978 C186.384659,24.3428413 185.416569,25.3098978 184.222393,25.3098978 C183.028218,25.3098978 182.060127,24.3428413 182.060127,23.1505978 C182.060127,21.9576978 183.028218,20.9906413 184.222393,20.9906413 C185.416569,20.9906413 186.384659,21.9576978 186.384659,23.1505978 Z" id="Stroke-30"></path>
                    <path d="M146.350463,14.1253278 C146.350463,15.3175713 145.382373,16.2852843 144.188197,16.2852843 C142.994679,16.2852843 142.025931,15.3175713 142.025931,14.1253278 C142.025931,12.9324278 142.994679,11.9653713 144.188197,11.9653713 C145.382373,11.9653713 146.350463,12.9324278 146.350463,14.1253278 Z" id="Stroke-32"></path>
                    <path d="M103.223701,6.38684043 C103.223701,7.57974043 102.25561,8.54679696 101.061435,8.54679696 C99.8672589,8.54679696 98.8991683,7.57974043 98.8991683,6.38684043 C98.8991683,5.19459696 99.8672589,4.22754043 101.061435,4.22754043 C102.25561,4.22754043 103.223701,5.19459696 103.223701,6.38684043 Z" id="Stroke-34"></path>
                    <path d="M117.915282,15.4473657 C117.915282,16.407857 117.135814,17.1851787 116.174953,17.1851787 C115.214092,17.1851787 114.435282,16.407857 114.435282,15.4473657 C114.435282,14.4875309 115.214092,13.7095526 116.174953,13.7095526 C117.135814,13.7095526 117.915282,14.4875309 117.915282,15.4473657 Z" id="Stroke-36"></path>
                    <path d="M117.753539,21.6182761 C117.753539,22.5787674 116.974729,23.3567457 116.013867,23.3567457 C115.052349,23.3567457 114.273539,22.5787674 114.273539,21.6182761 C114.273539,20.6584413 115.052349,19.880463 116.013867,19.880463 C116.974729,19.880463 117.753539,20.6584413 117.753539,21.6182761 Z" id="Stroke-38"></path>
                    <path d="M117.373926,27.7891865 C117.373926,28.7496778 116.595116,29.5276561 115.634255,29.5276561 C114.672737,29.5276561 113.893926,28.7496778 113.893926,27.7891865 C113.893926,26.8293517 114.672737,26.0513735 115.634255,26.0513735 C116.595116,26.0513735 117.373926,26.8293517 117.373926,27.7891865 Z" id="Stroke-40"></path>
                    <path d="M38.2804601,43.4103991 C38.2804601,44.6026426 37.3123694,45.5696991 36.1181938,45.5696991 C34.9240181,45.5696991 33.9559275,44.6026426 33.9559275,43.4103991 C33.9559275,42.2174991 34.9240181,41.2504426 36.1181938,41.2504426 C37.3123694,41.2504426 38.2804601,42.2174991 38.2804601,43.4103991 Z" id="Stroke-42"></path>
                    <path d="M36.1181938,15.6550891 C36.1181938,16.8479891 35.1501031,17.8150457 33.9559275,17.8150457 C32.7617518,17.8150457 31.7936612,16.8479891 31.7936612,15.6550891 C31.7936612,14.4628457 32.7617518,13.4951326 33.9559275,13.4951326 C35.1501031,13.4951326 36.1181938,14.4628457 36.1181938,15.6550891 Z" id="Stroke-44"></path>
                    <path d="M130.237899,32.5130574 L2.28825609,24.2093704 C1.1506017,24.1391226 0.28503796,23.1602487 0.355360907,22.023153 L1.32870935,6.31061826 C1.39903229,5.17352261 2.37895297,4.30888348 3.51726459,4.3791313 L131.466908,12.6828183 C136.948154,13.02224 141.116925,17.7354096 140.777797,23.2114574 C140.43867,28.6875052 135.719803,32.8518226 130.237899,32.5130574 Z" id="Stroke-46"></path>
                    <polyline id="Stroke-48" points="14.9506584 31.8110387 15.4205734 32.5325561 16.4221824 32.5325561 16.4221824 25.1263343"></polyline>
                    <path d="M0.351154674,22.8806361 C0.351154674,22.8806361 -0.0878708215,24.56921 2.89986856,25.9045752 L16.4222482,32.5321622 L33.0881292,41.2501143" id="Stroke-50"></path>
                    <path d="M13.3637258,31.033323 C13.3637258,31.033323 12.9279864,32.3844448 14.9509212,33.4447274 L32.0788306,42.1429839" id="Stroke-52"></path>
                    <polyline id="Stroke-54" points="77.0021144 19.7365535 84.7080635 19.7365535 84.7080635 29.5279187"></polyline>
                    <path d="M75.1684601,24.9188078 C75.4366074,24.7382643 75.7593042,24.6319078 76.1076329,24.6319078 C77.0349756,24.6319078 77.7868397,25.3829687 77.7868397,26.3093209 C77.7868397,26.9671557 76.8555535,27.809473 76.8555535,27.809473 C76.8555535,27.809473 76.2436782,28.4778122 76.4513609,29.0220687" id="Stroke-56"></path>
                    <path d="M77.2778198,21.2316504 C77.2778198,23.5734635 75.3771286,25.4727809 73.0321541,25.4727809 C70.6871796,25.4727809 68.7864884,23.5734635 68.7864884,21.2316504 C68.7864884,18.8891809 70.6871796,16.99052 73.0321541,16.99052 C75.3771286,16.99052 77.2778198,18.8891809 77.2778198,21.2316504 Z" id="Stroke-58"></path>
                    <path d="M74.5253666,22.1580683 L73.5980238,21.2317161 L74.5253666,20.3053639 C74.6817858,20.1484552 74.6817858,19.8963509 74.5253666,19.7394422 C74.3689473,19.5838465 74.1159161,19.5838465 73.9594969,19.7394422 L73.0321541,20.6664509 L72.1048113,19.7394422 C71.9483921,19.5838465 71.6947037,19.5838465 71.5389416,19.7394422 C71.3825224,19.8963509 71.3825224,20.1484552 71.5389416,20.3053639 L72.4662844,21.2317161 L71.5389416,22.1580683 C71.3825224,22.3136639 71.3825224,22.5670813 71.5389416,22.722677 C71.6947037,22.8795857 71.9483921,22.8795857 72.1048113,22.722677 L73.0321541,21.7963248 L73.9594969,22.722677 C74.1159161,22.8795857 74.3689473,22.8795857 74.5253666,22.722677 C74.6817858,22.5670813 74.6817858,22.3136639 74.5253666,22.1580683 Z" id="Stroke-60"></path>
                    <path d="M132.982663,21.8099804 C132.982663,24.15245 131.081972,26.0511109 128.736997,26.0511109 C126.392023,26.0511109 124.491331,24.15245 124.491331,21.8099804 C124.491331,19.4681674 126.392023,17.56885 128.736997,17.56885 C131.081972,17.56885 132.982663,19.4681674 132.982663,21.8099804 Z" id="Stroke-62"></path>
                    <path d="M130.23021,22.7363983 L129.302867,21.8100461 L130.23021,20.8836939 C130.386629,20.7274417 130.386629,20.4746809 130.23021,20.3184287 C130.07379,20.1621765 129.820759,20.1621765 129.66434,20.3184287 L128.736997,21.2454374 L127.809654,20.3184287 C127.653235,20.1621765 127.400204,20.1621765 127.243785,20.3184287 C127.087365,20.4746809 127.087365,20.7274417 127.243785,20.8836939 L128.171127,21.8100461 L127.243785,22.7363983 C127.087365,22.8926504 127.087365,23.1454113 127.243785,23.3016635 C127.400204,23.4579157 127.653235,23.4579157 127.809654,23.3016635 L128.736997,22.3753113 L129.66434,23.3016635 C129.820759,23.4579157 130.07379,23.4579157 130.23021,23.3016635 C130.386629,23.1454113 130.386629,22.8926504 130.23021,22.7363983 Z" id="Stroke-64"></path>
                    <path d="M80.1094686,9.35018261 L105.13195,0.712326087 C107.459837,-0.0919130435 110.030239,0.233065217 112.084721,1.59075217 L128.586296,12.4962348" id="Stroke-66"></path>
                    <path d="M132.666538,20.2013709 L135.773892,20.2013709 C137.141575,20.2013709 138.250312,21.308923 138.250312,22.6758013 C138.250312,24.042023 137.141575,25.1495752 135.773892,25.1495752 L131.352091,25.1495752" id="Stroke-68"></path>
                    <path d="M137.306933,43.7034048 C137.306933,48.0141265 133.809188,51.5087917 129.493856,51.5087917" id="Stroke-70"></path>
                    <path d="M137.306933,43.7034048 L137.306933,30.2296091" id="Stroke-72"></path>
                    <path d="M36.4827558,26.4286765 L45.3414754,32.0655722" id="Stroke-74"></path>
                    <polyline id="Stroke-76" points="58.2115603 131.959425 58.2115603 124.366751 64.3861779 124.366751"></polyline>
                    <path d="M58.2115603,127.495865 L64.1968975,127.495865" id="Stroke-78"></path>
                    <path d="M58.2115603,129.184636 L63.3392204,129.184636" id="Stroke-80"></path>
                    <path d="M28.2141575,51.2623991 L28.2141575,52.84396" id="Stroke-82"></path>
                    <path d="M228.630545,51.5085948 L228.630545,52.84396" id="Stroke-84"></path>
                </g>
            </g>
        </g>
    </g>
</svg>