<svg xmlns="http://www.w3.org/2000/svg" xmlns:xlink="http://www.w3.org/1999/xlink" width="793" height="231" viewBox="0 0 793 231">
    <defs>
        <path id="a" d="M0 230.076h792.191V0H0z"/>
    </defs>
    <g fill="none" fill-rule="evenodd">
        <path stroke="#262628" d="M452.32 204.031l2.563 23.365s8.357 4.57 18.275 0l1.893-23.365M746.622 204.031l2.563 23.365s8.357 4.57 18.275 0l1.894-23.365M711.018 38.585H510.836a4.347 4.347 0 0 1-4.346-4.347V6.803a4.346 4.346 0 0 1 4.346-4.346h200.182c2.4 0 4.346 1.945 4.346 4.346v27.435a4.347 4.347 0 0 1-4.346 4.347zM506.49 5.576h-70.974a5.35 5.35 0 0 0-5.35 5.351v24.189s-.123 1.45 1.316 2.393c2.027 1.326 21.892 13.517 21.892 13.517"/>
        <path stroke="#262628" d="M432.962 36.611s-.762-1.167.673-1.21c1.435-.046 72.856 0 72.856 0M715.364 5.576h72.456a3.868 3.868 0 0 1 3.868 3.868v25.672s.123 1.45-1.316 2.393c-2.027 1.326-21.892 13.517-21.892 13.517"/>
        <path stroke="#262628" d="M788.892 36.611s.763-1.167-.673-1.21c-1.435-.046-72.855 0-72.855 0M463.663 35.38s-14.355 16.843-18.782 38.735c0 0-1.735 6.52 6.52 7.059"/>
        <path stroke="#262628" d="M468.327 35.38s-12.201 17.32-17.225 37.897c0 0-2.213 5.983 5.084 7.897M758.192 35.38s14.355 16.843 18.782 38.735c0 0 1.735 6.52-6.52 7.059"/>
        <path stroke="#262628" d="M753.528 35.38s12.201 17.32 17.225 37.897c0 0 2.213 5.983-5.084 7.897M452.861 79.618h316.068M481.846 204.031v-72.853h1.555v1.197h221.914v-1.197h2.602v18.214l-.942.943v53.696h69.72V81.174H445.39v122.857z"/>
        <path stroke="#262628" d="M486.14 155.59c0 1.35-.271 2.446-.606 2.446-.335 0-.607-1.095-.607-2.446 0-1.351.272-2.445.607-2.445.335 0 .606 1.094.606 2.445zM705.447 155.59c0 1.35-.271 2.446-.606 2.446-.335 0-.607-1.095-.607-2.446 0-1.351.272-2.445.607-2.445.335 0 .606 1.094.606 2.445zM486.164 192.818a2.646 2.646 0 0 1 .731-1.83 2.655 2.655 0 0 1 4.58 1.83M486.895 190.988l-2.784 2.926M702.787 192.818a2.652 2.652 0 0 0-2.656-2.655 2.655 2.655 0 0 0-2.655 2.655M702.056 190.988l2.785 2.926M702.947 198.248H485.953a2.556 2.556 0 0 1-2.548-2.565c0-.686.267-1.308.7-1.77a2.54 2.54 0 0 1 1.848-.796h216.994a2.557 2.557 0 0 1 2.548 2.566 2.556 2.556 0 0 1-2.548 2.565z"/>
        <path stroke="#262628" d="M486.14 191.757v-4.797c0-1.075.873-1.947 1.948-1.947h213.989c1.076 0 1.949.872 1.949 1.947v6.4"/>
        <path stroke="#262628" d="M481.846 191.297v-6.171c0-1.384.901-2.506 2.013-2.506h221.103c1.112 0 2.013 1.122 2.013 2.506v8.234M481.846 204.031l4.293-2.6M704.025 200.444l2.95 3.587M481.846 181.424l46.716-22.431v-24.495M486.662 132.375l4.307 2.123h211.087l3.26-2.123"/>
        <path stroke="#262628" d="M707.918 135.724l-5.862-1.227-28.921 4.218v21.103l33.92 20.891"/>
        <path stroke="#262628" d="M707.918 149.392l-34.783-10.677h-7.476v22.73H534.484v-26.948M706.975 150.335l-33.84-10.633M488.82 178.075h213.968M497.68 173.821H695.87M676.425 134.498s-1.843 1.725-1.16 3.907"/>
        <path stroke="#262628" d="M670.98 143.055a1.605 1.605 0 1 1-3.212.002 1.605 1.605 0 0 1 3.211-.001zM485.256 198.248v1.227a2.944 2.944 0 0 0 2.943 2.944h6.336a2.086 2.086 0 0 0 2.086-2.086H703.55a.987.987 0 0 0 .988-.987v-1.863"/>
        <path stroke="#262628" d="M499.223 211.61v-11.277h4.634v5.887"/>
        <path stroke="#262628" d="M499.223 211.61v-4.797c0-.327.266-.593.593-.593h5.794a5.388 5.388 0 0 1 5.388 5.39.593.593 0 0 1-.593.592h-10.59a.594.594 0 0 1-.592-.593zM691.194 210.732v-10.446h-4.634v5.934"/>
        <path stroke="#262628" d="M691.194 211.562v-4.796a.593.593 0 0 0-.593-.593h-5.794a5.388 5.388 0 0 0-5.388 5.39c0 .326.265.592.593.592h10.589a.593.593 0 0 0 .593-.593zM761.67 171.844c0 10.108-8.193 18.303-18.303 18.303-10.107 0-18.301-8.195-18.301-18.303s8.193-18.303 18.301-18.303c10.11 0 18.303 8.195 18.303 18.303z"/>
        <path stroke="#262628" d="M761.67 173.57c0 8.686-7.041 15.727-15.727 15.727-8.688 0-15.728-7.04-15.728-15.728 0-8.687 7.04-15.729 15.727-15.729 8.687 0 15.728 7.042 15.728 15.73z"/>
        <path stroke="#262628" d="M758.291 173.57c0 6.82-5.529 12.348-12.349 12.348s-12.349-5.529-12.349-12.349 5.53-12.349 12.35-12.349c6.82 0 12.348 5.53 12.348 12.35zM742.302 153.54s2.12 2.002 1.598 4.398M745.05 153.554s-.44 1.988.083 4.385"/>
        <path stroke="#262628" d="M761.67 173.57c0 8.686-7.041 15.727-15.727 15.727-8.688 0-15.728-7.04-15.728-15.728 0-8.687 7.04-15.729 15.727-15.729 8.687 0 15.728 7.042 15.728 15.73z"/>
        <mask id="b" fill="#fff">
            <use xlink:href="#a"/>
        </mask>
        <path stroke="#262628" d="M503.857 203.525H686.56v-3.135H503.857zM510.58 206.22h169.375v-2.695H510.58zM510.998 211.61h168.42M528.562 158.993h5.921M673.135 159.818h-7.477M41.078 204.025h309.603V80.566H41.078zM80.678 41.966c-19.529 10.657-32.225 22.09-39.083 29.28-2.618 2.746-.678 7.287 3.115 7.287h302.444c4.232 0 6.428-5.056 3.527-8.138-15.998-17.002-65.38-54.748-154.8-55.027-1.984-.006-3.947.007-5.888.037" mask="url(#b)"/>
        <path stroke="#262628" d="M41.079 150.909l-3.828 3.828-1.436 5.742v13.638l1.316 5.503 3.948 4.187" mask="url(#b)"/>
        <path stroke="#262628" d="M38.447 153.54H27.92l-3.83 4.786v18.304l4.308 4.307h9.974M24.09 158.326s8.256-.718 11.725 2.153M24.09 176.63s7.658 1.076 11.725-2.513M88.123 201.094H77.184c-5.567 0-10.08-4.512-10.08-10.078 0-5.567 4.513-10.08 10.08-10.08h10.94c5.565 0 10.078 4.513 10.078 10.08 0 5.566-4.513 10.078-10.079 10.078z" mask="url(#b)"/>
        <path stroke="#262628" d="M79.779 192.57a3.978 3.978 0 1 1-7.956 0 3.978 3.978 0 0 1 7.956 0z" mask="url(#b)"/>
        <path stroke="#262628" d="M84.385 191.762a6.28 6.28 0 0 1-6.281 6.28 6.28 6.28 0 1 1 0-12.56 6.28 6.28 0 0 1 6.28 6.28zM71.823 189.849s-2.213-1.076-3.23.599c-1.017 1.673 0 5.887 0 5.887M84.385 191.762s5.323-2.75 6.699-4.425c1.376-1.675 4.113-2.207 6.273-.416" mask="url(#b)"/>
        <path stroke="#262628" d="M78.104 185.482s.604-4.599 5.862-4.546c5.258.053 6.203 5.032 4.03 8.767M54.597 204.025l2.75 23.371s8.974 4.904 19.62 0l2.035-23.37M311.562 204.025l2.752 23.371s8.972 4.904 19.62 0l2.033-23.37M338.898 68.603a3.29 3.29 0 1 1-6.58 0 3.29 3.29 0 0 1 6.58 0zM283.594 35.338a3.29 3.29 0 1 1-6.58 0 3.29 3.29 0 0 1 6.58 0zM222.68 21.592a3.29 3.29 0 1 1-6.58-.002 3.29 3.29 0 0 1 6.58.002zM157.06 9.805a3.29 3.29 0 1 1-6.58 0 3.29 3.29 0 0 1 6.58 0zM179.414 23.605a2.648 2.648 0 1 1-5.295-.001 2.648 2.648 0 0 1 5.295.001zM179.168 33.005a2.647 2.647 0 1 1-5.294 0 2.647 2.647 0 0 1 5.294 0zM178.59 42.404a2.646 2.646 0 0 1-2.647 2.647 2.646 2.646 0 1 1 0-5.294 2.647 2.647 0 0 1 2.647 2.647zM58.246 66.197a3.29 3.29 0 1 1-6.58 0 3.29 3.29 0 0 1 6.58 0zM54.956 23.922a3.29 3.29 0 1 1-6.58 0 3.29 3.29 0 0 1 6.58 0z" mask="url(#b)"/>
        <path stroke="#262628" d="M198.164 49.599L3.482 36.952a3.142 3.142 0 0 1-2.941-3.33L2.02 9.687a3.142 3.142 0 0 1 3.33-2.942l194.683 12.648c8.34.518 14.683 7.697 14.167 16.038-.516 8.34-7.696 14.683-16.037 14.166z" mask="url(#b)"/>
        <path stroke="#262628" d="M22.748 48.53l.715 1.098h1.524v-11.28" mask="url(#b)"/>
        <path stroke="#262628" d="M.534 34.928s-.668 2.572 3.878 4.605l20.575 10.095 25.358 13.28" mask="url(#b)"/>
        <path stroke="#262628" d="M20.334 47.345s-.663 2.059 2.415 3.674l26.06 13.248M117.163 30.139h11.725V45.05M114.373 38.032a2.555 2.555 0 0 1 3.984 2.118c0 1.002-1.417 2.285-1.417 2.285s-.931 1.018-.615 1.847" mask="url(#b)"/>
        <path stroke="#262628" d="M117.582 32.416a6.46 6.46 0 1 1-12.92 0 6.46 6.46 0 0 1 12.92 0z" mask="url(#b)"/>
        <path stroke="#262628" d="M113.394 33.827l-1.41-1.411 1.41-1.412a.608.608 0 1 0-.86-.861l-1.412 1.412-1.41-1.412a.608.608 0 1 0-.861.861l1.41 1.412-1.41 1.411a.607.607 0 0 0 0 .86.607.607 0 0 0 .86 0l1.411-1.411 1.411 1.411a.607.607 0 0 0 .861 0 .607.607 0 0 0 0-.86zM202.34 33.297a6.46 6.46 0 1 1-12.92-.001 6.46 6.46 0 0 1 12.92 0z" mask="url(#b)"/>
        <path stroke="#262628" d="M198.152 34.708l-1.411-1.411 1.411-1.411a.61.61 0 0 0-.861-.862l-1.411 1.412-1.411-1.412a.61.61 0 0 0-.861.862l1.411 1.41-1.411 1.412a.607.607 0 0 0 0 .86.607.607 0 0 0 .861 0l1.411-1.411 1.411 1.41a.607.607 0 0 0 .861 0 .607.607 0 0 0 0-.86zM121.89 14.318L159.965 1.16a12.042 12.042 0 0 1 10.579 1.34l25.108 16.61M201.859 30.846h4.728a3.768 3.768 0 0 1 0 7.537h-6.728M208.92 66.644c0 6.566-5.322 11.89-11.888 11.89M208.92 66.644V46.121M55.51 40.33l13.48 8.588M88.572 201.073v-11.565h9.395M88.572 194.275h9.107M88.572 196.846h7.802M42.93 78.158v2.408M347.873 78.533v2.033" mask="url(#b)"/>
    </g>
</svg>
