<?xml version="1.0" encoding="UTF-8"?>
<svg width="360px" height="50px" viewBox="0 0 360 50" version="1.1" xmlns="http://www.w3.org/2000/svg" xmlns:xlink="http://www.w3.org/1999/xlink">
    <!-- Generator: sketchtool 54 (76480) - https://sketchapp.com -->
    <title>E4E36B4D-4B36-4BEE-B388-9AB795BB158F</title>
    <desc>Created with sketchtool.</desc>
    <defs>
        <polygon id="path-1" points="0.7561 0.929 41.6251 0.929 41.6251 44.5264 0.7561 44.5264"></polygon>
        <polygon id="path-3" points="0.3318 0.8084 38.6578 0.8084 38.6578 46 0.3318 46"></polygon>
    </defs>
    <g id="Page-1" stroke="none" stroke-width="1" fill="none" fill-rule="evenodd">
        <g id="PopUP" transform="translate(-487.000000, -372.000000)">
            <g id="Group-19" transform="translate(487.000000, 371.000000)">
                <path d="M32.2653,33.8428 C32.2653,35.2768 31.5473,35.9938 30.1143,35.9938 L10.7553,35.9938 C9.3213,35.9938 8.6043,35.2768 8.6043,33.8428 L8.6043,16.6348 C8.6043,15.2008 9.3213,14.4838 10.7553,14.4838 L30.1143,14.4838 C31.5473,14.4838 32.2653,15.2008 32.2653,16.6348 L32.2653,33.8428 Z M30.1143,5.8798 L10.7553,5.8798 C3.5843,5.8798 0.0003,9.4648 0.0003,16.6348 L0.0003,33.8428 C0.0003,41.0128 3.5843,44.5978 10.7553,44.5978 L30.1143,44.5978 C37.2843,44.5978 40.8693,41.0128 40.8693,33.8428 L40.8693,16.6348 C40.8693,9.4648 37.2843,5.8798 30.1143,5.8798 L30.1143,5.8798 Z" id="Fill-1" fill="#FF4040"></path>
                <polygon id="Fill-3" fill="#FF4040" points="75.2418 5.8797 63.8628 30.2727 52.4838 5.8797 42.9768 5.8797 61.0118 44.5487 66.7148 44.5487 84.7488 5.8797"></polygon>
                <polygon id="Fill-5" fill="#FF4040" points="128.2326 14.4837 132.5346 5.8797 89.5146 5.8797 89.5146 44.5977 131.6916 44.5977 131.6916 35.9937 98.1186 35.9937 98.1186 29.5407 123.9306 29.5407 128.2326 20.9367 98.1186 20.9367 98.1186 14.4837"></polygon>
                <g id="Group-9" transform="translate(139.000000, 0.071300)">
                    <mask id="mask-2" fill="white">
                        <use xlink:href="#path-1"></use>
                    </mask>
                    <g id="Clip-8"></g>
                    <polygon id="Fill-7" fill="#FF4040" mask="url(#mask-2)" points="41.6251 5.8084 33.0211 5.8084 33.0211 30.3724 6.8381 5.7794 0.7561 0.9284 0.7561 44.5264 9.3601 44.5264 9.3601 19.9624 35.4581 44.4774 41.6251 44.4774"></polygon>
                </g>
                <g id="Group-12" transform="translate(189.000000, 5.071300)">
                    <mask id="mask-4" fill="white">
                        <use xlink:href="#path-3"></use>
                    </mask>
                    <g id="Clip-11"></g>
                    <path d="M30.0538,13.7144 C30.0538,15.1484 29.3368,15.8654 27.9028,15.8654 L8.9358,15.8654 L8.9358,9.4124 L27.9028,9.4124 C29.3368,9.4124 30.0538,10.1294 30.0538,11.5634 L30.0538,13.7144 Z M27.9028,0.8084 L0.3318,0.8084 L0.3318,46.0004 L8.9358,39.5194 L8.9358,24.4694 L27.9028,24.4694 C35.0728,24.4694 38.6578,20.8844 38.6578,13.7144 L38.6578,11.5634 C38.6578,4.3934 35.0728,0.8084 27.9028,0.8084 L27.9028,0.8084 Z" id="Fill-10" fill="#FF4040" mask="url(#mask-4)"></path>
                </g>
                <polygon id="Fill-13" fill="#FF4040" points="242.693 5.8797 234.089 5.8797 234.089 44.5977 266.354 44.5977 262.519 35.9937 242.693 35.9937"></polygon>
                <path d="M302.4987,33.8428 C302.4987,35.2768 301.7807,35.9938 300.3477,35.9938 L280.9887,35.9938 C279.5547,35.9938 278.8377,35.2768 278.8377,33.8428 L278.8377,5.8798 L270.2337,5.8798 L270.2337,33.8428 C270.2337,41.0128 273.8177,44.5978 280.9887,44.5978 L300.3477,44.5978 C307.5177,44.5978 311.1027,41.0128 311.1027,33.8428 L311.1027,5.8708 L302.4987,5.9128 L302.4987,33.8428 Z" id="Fill-15" fill="#FF4040"></path>
                <path d="M348.4264,20.9441 L329.0684,20.9441 C327.6344,20.9441 326.9174,20.2281 326.9174,18.7941 L326.9174,16.6431 C326.9174,15.2101 327.6344,14.4931 329.0684,14.4931 L357.0304,14.4931 L357.2814,5.8921 L329.0684,5.8921 C321.8974,5.8921 318.3134,9.4761 318.3134,16.6431 L318.3134,18.7941 C318.3134,25.9621 321.8974,29.5451 329.0684,29.5451 L348.4264,29.5451 C349.8594,29.5451 350.5774,30.2621 350.5774,31.6961 L350.5774,33.8461 C350.5774,35.2801 349.8594,35.9961 348.4264,35.9961 L320.4644,35.9961 L316.1624,44.5981 L348.4264,44.5981 C355.5954,44.5981 359.1804,41.0141 359.1804,33.8461 L359.1804,31.6961 C359.1804,24.5281 355.5954,20.9441 348.4264,20.9441" id="Fill-17" fill="#FF4040"></path>
            </g>
        </g>
    </g>
</svg>