<?xml version="1.0" encoding="UTF-8"?>
<svg width="64px" height="107px" viewBox="0 0 64 107" version="1.1" xmlns="http://www.w3.org/2000/svg" xmlns:xlink="http://www.w3.org/1999/xlink">
    <!-- Generator: sketchtool 54 (76480) - https://sketchapp.com -->
    <title>87C47259-F3DE-42E8-98B0-36C83319B162</title>
    <desc>Created with sketchtool.</desc>
    <defs>
        <path d="M22.4026047,3.04477419 C21.6029767,3.60393548 20.8411163,4.24017742 20.1274419,4.9561129 L20.1274419,4.9561129 C17.2688372,7.82508065 15.5875349,11.3041613 15.239814,15.0170968 L15.239814,15.0170968 C14.8842791,18.8058065 16.296,22.5500968 18.5906977,25.5810645 L18.5906977,25.5810645 L20.9075349,28.6420806 C24.1412093,32.912871 23.8507907,39.1694677 19.768,42.6302581 L19.768,42.6302581 C15.4156279,46.3222903 8.92483721,45.5619355 5.52186047,41.0664355 L5.52186047,41.0664355 C4.83944186,40.1649839 4.37711628,39.1733871 4.04502326,38.1569677 L4.04502326,38.1569677 C-2.15534884,48.8071613 -0.737116279,62.6986613 8.36353488,71.8281452 L8.36353488,71.8281452 C19.6234419,83.1237258 38.1659535,82.6716935 48.8424186,70.4720484 L48.8424186,70.4720484 C58.5851163,59.3397742 57.3426977,42.2892742 46.8993488,31.8141452 L46.8993488,31.8141452 L43.6539535,28.5584677 L32.256,17.1244032 C28.2070698,13.0613387 27.4660465,6.48074194 31.0331163,1.98524194 L31.0331163,1.98524194 C31.6061395,1.26408065 32.2442791,0.638290323 32.928,0.102645161 L32.928,0.102645161 C32.5828837,0.0817419355 32.2364651,0.0712903226 31.8900465,0.0712903226 L31.8900465,0.0712903226 C28.567814,0.0712903226 25.2455814,1.06158065 22.4026047,3.04477419" id="path-1"></path>
        <linearGradient x1="57.3115116%" y1="39.8521939%" x2="46.049778%" y2="79.2756652%" id="linearGradient-3">
            <stop stop-color="#EC733F" offset="0%"></stop>
            <stop stop-color="#D44244" offset="100%"></stop>
        </linearGradient>
    </defs>
    <g id="Page-1" stroke="none" stroke-width="1" fill="none" fill-rule="evenodd">
        <g id="PopUP" transform="translate(-635.000000, -222.000000)">
            <g id="LOGO" transform="translate(635.000000, 222.000000)">
                <polygon id="Fill-1" fill="#161837" points="0.674698795 107 63.6746988 107 63.6746988 91 0.674698795 91"></polygon>
                <g id="Group-4" transform="translate(3.674699, 0.000000)">
                    <mask id="mask-2" fill="white">
                        <use xlink:href="#path-1"></use>
                    </mask>
                    <g id="Clip-3"></g>
                    <path d="M22.4026047,3.04477419 C21.6029767,3.60393548 20.8411163,4.24017742 20.1274419,4.9561129 L20.1274419,4.9561129 C17.2688372,7.82508065 15.5875349,11.3041613 15.239814,15.0170968 L15.239814,15.0170968 C14.8842791,18.8058065 16.296,22.5500968 18.5906977,25.5810645 L18.5906977,25.5810645 L20.9075349,28.6420806 C24.1412093,32.912871 23.8507907,39.1694677 19.768,42.6302581 L19.768,42.6302581 C15.4156279,46.3222903 8.92483721,45.5619355 5.52186047,41.0664355 L5.52186047,41.0664355 C4.83944186,40.1649839 4.37711628,39.1733871 4.04502326,38.1569677 L4.04502326,38.1569677 C-2.15534884,48.8071613 -0.737116279,62.6986613 8.36353488,71.8281452 L8.36353488,71.8281452 C19.6234419,83.1237258 38.1659535,82.6716935 48.8424186,70.4720484 L48.8424186,70.4720484 C58.5851163,59.3397742 57.3426977,42.2892742 46.8993488,31.8141452 L46.8993488,31.8141452 L43.6539535,28.5584677 L32.256,17.1244032 C28.2070698,13.0613387 27.4660465,6.48074194 31.0331163,1.98524194 L31.0331163,1.98524194 C31.6061395,1.26408065 32.2442791,0.638290323 32.928,0.102645161 L32.928,0.102645161 C32.5828837,0.0817419355 32.2364651,0.0712903226 31.8900465,0.0712903226 L31.8900465,0.0712903226 C28.567814,0.0712903226 25.2455814,1.06158065 22.4026047,3.04477419" id="Fill-2" fill="url(#linearGradient-3)" mask="url(#mask-2)"></path>
                </g>
            </g>
        </g>
    </g>
</svg>